<mxfile host="app.diagrams.net" agent="Mozilla/5.0 (Windows NT 10.0; Win64; x64) AppleWebKit/537.36 (KHTML, like Gecko) Chrome/130.0.0.0 Safari/537.36" version="24.8.1">
  <diagram name="Page-1" id="NO_D_5BVLHOWg74KIrwG">
    <mxGraphModel dx="1222" dy="1682" grid="1" gridSize="10" guides="1" tooltips="1" connect="1" arrows="1" fold="1" page="1" pageScale="1" pageWidth="850" pageHeight="1100" math="0" shadow="0">
      <root>
        <mxCell id="0" />
        <mxCell id="1" parent="0" />
        <mxCell id="b3EzDC3N50MyFhNFGn3a-60" value="" style="rounded=0;whiteSpace=wrap;html=1;" vertex="1" parent="1">
          <mxGeometry x="250" y="-20" width="120" height="280" as="geometry" />
        </mxCell>
        <mxCell id="b3EzDC3N50MyFhNFGn3a-53" value="" style="rounded=1;whiteSpace=wrap;html=1;" vertex="1" parent="1">
          <mxGeometry x="500" y="52" width="210" height="180" as="geometry" />
        </mxCell>
        <mxCell id="b3EzDC3N50MyFhNFGn3a-29" value="" style="rounded=1;whiteSpace=wrap;html=1;" vertex="1" parent="1">
          <mxGeometry x="740.5" y="50" width="220" height="200" as="geometry" />
        </mxCell>
        <mxCell id="b3EzDC3N50MyFhNFGn3a-5" value="" style="shape=image;html=1;verticalAlign=top;verticalLabelPosition=bottom;labelBackgroundColor=#ffffff;imageAspect=0;aspect=fixed;image=https://cdn2.iconfinder.com/data/icons/browsers/Chrome.png" vertex="1" parent="1">
          <mxGeometry x="300" y="25" width="50" height="50" as="geometry" />
        </mxCell>
        <mxCell id="b3EzDC3N50MyFhNFGn3a-6" value="" style="html=1;verticalLabelPosition=bottom;align=center;labelBackgroundColor=#ffffff;verticalAlign=top;strokeWidth=2;strokeColor=#0080F0;shadow=0;dashed=0;shape=mxgraph.ios7.icons.smartphone;" vertex="1" parent="1">
          <mxGeometry x="316" y="180" width="18" height="30" as="geometry" />
        </mxCell>
        <mxCell id="b3EzDC3N50MyFhNFGn3a-8" value="Web user" style="shape=umlActor;verticalLabelPosition=bottom;verticalAlign=top;html=1;outlineConnect=0;" vertex="1" parent="1">
          <mxGeometry x="100" y="10" width="30" height="60" as="geometry" />
        </mxCell>
        <mxCell id="b3EzDC3N50MyFhNFGn3a-9" value="mobile user" style="shape=umlActor;verticalLabelPosition=bottom;verticalAlign=top;html=1;outlineConnect=0;" vertex="1" parent="1">
          <mxGeometry x="110" y="160" width="30" height="60" as="geometry" />
        </mxCell>
        <mxCell id="b3EzDC3N50MyFhNFGn3a-13" value="" style="endArrow=classic;html=1;rounded=0;entryX=0;entryY=0.5;entryDx=0;entryDy=0;" edge="1" parent="1" source="b3EzDC3N50MyFhNFGn3a-8" target="b3EzDC3N50MyFhNFGn3a-5">
          <mxGeometry width="50" height="50" relative="1" as="geometry">
            <mxPoint x="160" y="70" as="sourcePoint" />
            <mxPoint x="410" y="140" as="targetPoint" />
          </mxGeometry>
        </mxCell>
        <mxCell id="b3EzDC3N50MyFhNFGn3a-14" value="" style="endArrow=classic;html=1;rounded=0;" edge="1" parent="1" source="b3EzDC3N50MyFhNFGn3a-9">
          <mxGeometry width="50" height="50" relative="1" as="geometry">
            <mxPoint x="330" y="170" as="sourcePoint" />
            <mxPoint x="310" y="190" as="targetPoint" />
          </mxGeometry>
        </mxCell>
        <mxCell id="b3EzDC3N50MyFhNFGn3a-18" value="URL/Domain Mapping" style="outlineConnect=0;dashed=0;verticalLabelPosition=bottom;verticalAlign=top;align=center;html=1;shape=mxgraph.aws3.elastic_beanstalk;fillColor=#F58534;gradientColor=none;" vertex="1" parent="1">
          <mxGeometry x="480.5" y="-180" width="67.5" height="93" as="geometry" />
        </mxCell>
        <mxCell id="b3EzDC3N50MyFhNFGn3a-19" value="&lt;b&gt;Medium&amp;nbsp;&lt;/b&gt;" style="outlineConnect=0;dashed=0;verticalLabelPosition=bottom;verticalAlign=top;align=center;html=1;shape=mxgraph.aws3.ec2;fillColor=#F58534;gradientColor=none;" vertex="1" parent="1">
          <mxGeometry x="630" y="108.63" width="70" height="82.75" as="geometry" />
        </mxCell>
        <mxCell id="b3EzDC3N50MyFhNFGn3a-20" value="" style="endArrow=classic;html=1;rounded=0;exitX=1.003;exitY=0.107;exitDx=0;exitDy=0;exitPerimeter=0;" edge="1" parent="1" source="b3EzDC3N50MyFhNFGn3a-60" target="b3EzDC3N50MyFhNFGn3a-18">
          <mxGeometry width="50" height="50" relative="1" as="geometry">
            <mxPoint x="420" y="100" as="sourcePoint" />
            <mxPoint x="470" y="50" as="targetPoint" />
          </mxGeometry>
        </mxCell>
        <mxCell id="b3EzDC3N50MyFhNFGn3a-25" value="" style="endArrow=classic;html=1;rounded=0;entryX=0.5;entryY=0;entryDx=0;entryDy=0;entryPerimeter=0;" edge="1" parent="1" source="b3EzDC3N50MyFhNFGn3a-44" target="b3EzDC3N50MyFhNFGn3a-36">
          <mxGeometry width="50" height="50" relative="1" as="geometry">
            <mxPoint x="270" y="40" as="sourcePoint" />
            <mxPoint x="540" y="-10" as="targetPoint" />
          </mxGeometry>
        </mxCell>
        <mxCell id="b3EzDC3N50MyFhNFGn3a-27" value="&lt;b&gt;EC2&lt;/b&gt;" style="outlineConnect=0;dashed=0;verticalLabelPosition=bottom;verticalAlign=top;align=center;html=1;shape=mxgraph.aws3.ec2;fillColor=#F58534;gradientColor=none;" vertex="1" parent="1">
          <mxGeometry x="750" y="126.99999999999999" width="76.5" height="93" as="geometry" />
        </mxCell>
        <mxCell id="b3EzDC3N50MyFhNFGn3a-32" value="&lt;b&gt;RDS-RDBMS(My Sql/Postgres SQL&lt;/b&gt;)&amp;nbsp;&lt;div&gt;&lt;b&gt;AZ instance&lt;/b&gt;&amp;nbsp;&lt;/div&gt;" style="outlineConnect=0;dashed=0;verticalLabelPosition=bottom;verticalAlign=top;align=center;html=1;shape=mxgraph.aws3.rds_db_instance_read_replica;fillColor=#2E73B8;gradientColor=none;" vertex="1" parent="1">
          <mxGeometry x="740.5" y="320" width="49.5" height="66" as="geometry" />
        </mxCell>
        <mxCell id="b3EzDC3N50MyFhNFGn3a-33" value="" style="endArrow=classic;html=1;rounded=0;" edge="1" parent="1" source="b3EzDC3N50MyFhNFGn3a-19" target="b3EzDC3N50MyFhNFGn3a-32">
          <mxGeometry width="50" height="50" relative="1" as="geometry">
            <mxPoint x="270" y="110" as="sourcePoint" />
            <mxPoint x="320" y="60" as="targetPoint" />
          </mxGeometry>
        </mxCell>
        <mxCell id="b3EzDC3N50MyFhNFGn3a-34" value="" style="endArrow=classic;html=1;rounded=0;" edge="1" parent="1" source="b3EzDC3N50MyFhNFGn3a-27" target="b3EzDC3N50MyFhNFGn3a-19">
          <mxGeometry width="50" height="50" relative="1" as="geometry">
            <mxPoint x="270" y="110" as="sourcePoint" />
            <mxPoint x="320" y="60" as="targetPoint" />
          </mxGeometry>
        </mxCell>
        <mxCell id="b3EzDC3N50MyFhNFGn3a-36" value="&lt;b&gt;Large/ Extra Large&amp;nbsp;&lt;/b&gt;" style="outlineConnect=0;dashed=0;verticalLabelPosition=bottom;verticalAlign=top;align=center;html=1;shape=mxgraph.aws3.ec2;fillColor=#F58534;gradientColor=none;" vertex="1" parent="1">
          <mxGeometry x="537.5" y="105" width="66.5" height="75" as="geometry" />
        </mxCell>
        <mxCell id="b3EzDC3N50MyFhNFGn3a-39" value="&lt;b&gt;RDS No Sql(DynamoDB/MongoDB)&lt;/b&gt;" style="outlineConnect=0;dashed=0;verticalLabelPosition=bottom;verticalAlign=top;align=center;html=1;shape=mxgraph.aws3.rds;fillColor=#2E73B8;gradientColor=none;" vertex="1" parent="1">
          <mxGeometry x="548" y="300" width="72" height="71" as="geometry" />
        </mxCell>
        <mxCell id="b3EzDC3N50MyFhNFGn3a-45" value="" style="endArrow=classic;html=1;rounded=0;entryX=0.165;entryY=0.003;entryDx=0;entryDy=0;entryPerimeter=0;" edge="1" parent="1" source="b3EzDC3N50MyFhNFGn3a-18" target="b3EzDC3N50MyFhNFGn3a-44">
          <mxGeometry width="50" height="50" relative="1" as="geometry">
            <mxPoint x="533" y="-107" as="sourcePoint" />
            <mxPoint x="601" y="1" as="targetPoint" />
          </mxGeometry>
        </mxCell>
        <mxCell id="b3EzDC3N50MyFhNFGn3a-44" value="Load Balancer" style="outlineConnect=0;dashed=0;verticalLabelPosition=bottom;verticalAlign=top;align=center;html=1;shape=mxgraph.aws3.classic_load_balancer;fillColor=#F58534;gradientColor=none;" vertex="1" parent="1">
          <mxGeometry x="660" y="-120" width="60" height="52" as="geometry" />
        </mxCell>
        <mxCell id="b3EzDC3N50MyFhNFGn3a-46" value="" style="endArrow=classic;html=1;rounded=0;" edge="1" parent="1" source="b3EzDC3N50MyFhNFGn3a-44" target="b3EzDC3N50MyFhNFGn3a-19">
          <mxGeometry width="50" height="50" relative="1" as="geometry">
            <mxPoint x="609" y="35" as="sourcePoint" />
            <mxPoint x="633" y="101" as="targetPoint" />
          </mxGeometry>
        </mxCell>
        <mxCell id="b3EzDC3N50MyFhNFGn3a-48" value="&lt;b&gt;EC2&lt;/b&gt;" style="outlineConnect=0;dashed=0;verticalLabelPosition=bottom;verticalAlign=top;align=center;html=1;shape=mxgraph.aws3.ec2;fillColor=#F58534;gradientColor=none;" vertex="1" parent="1">
          <mxGeometry x="850" y="122.13" width="76.5" height="93" as="geometry" />
        </mxCell>
        <mxCell id="b3EzDC3N50MyFhNFGn3a-49" value="" style="endArrow=classic;html=1;rounded=0;" edge="1" parent="1" source="b3EzDC3N50MyFhNFGn3a-44" target="b3EzDC3N50MyFhNFGn3a-27">
          <mxGeometry width="50" height="50" relative="1" as="geometry">
            <mxPoint x="600" y="40" as="sourcePoint" />
            <mxPoint x="634" y="137" as="targetPoint" />
          </mxGeometry>
        </mxCell>
        <mxCell id="b3EzDC3N50MyFhNFGn3a-54" value="&lt;b&gt;CDN&lt;/b&gt;" style="image;aspect=fixed;html=1;points=[];align=center;fontSize=12;image=img/lib/azure2/app_services/CDN_Profiles.svg;" vertex="1" parent="1">
          <mxGeometry x="850" y="-147" width="68" height="40" as="geometry" />
        </mxCell>
        <mxCell id="b3EzDC3N50MyFhNFGn3a-55" value="&lt;b&gt;S3 Bucket(static File)&lt;/b&gt;" style="sketch=0;outlineConnect=0;fontColor=#232F3E;gradientColor=none;fillColor=#7AA116;strokeColor=none;dashed=0;verticalLabelPosition=bottom;verticalAlign=top;align=center;html=1;fontSize=12;fontStyle=0;aspect=fixed;pointerEvents=1;shape=mxgraph.aws4.bucket;" vertex="1" parent="1">
          <mxGeometry x="807.3100000000001" y="-43" width="65.38" height="68" as="geometry" />
        </mxCell>
        <mxCell id="b3EzDC3N50MyFhNFGn3a-58" value="" style="endArrow=classic;html=1;rounded=0;entryX=1;entryY=0.25;entryDx=0;entryDy=0;" edge="1" parent="1" source="b3EzDC3N50MyFhNFGn3a-54" target="b3EzDC3N50MyFhNFGn3a-60">
          <mxGeometry width="50" height="50" relative="1" as="geometry">
            <mxPoint x="590" y="10" as="sourcePoint" />
            <mxPoint x="580" as="targetPoint" />
            <Array as="points">
              <mxPoint x="780" y="-90" />
            </Array>
          </mxGeometry>
        </mxCell>
        <mxCell id="b3EzDC3N50MyFhNFGn3a-67" value="" style="endArrow=classic;html=1;rounded=0;entryX=0.5;entryY=0;entryDx=0;entryDy=0;entryPerimeter=0;" edge="1" parent="1" source="b3EzDC3N50MyFhNFGn3a-36" target="b3EzDC3N50MyFhNFGn3a-39">
          <mxGeometry relative="1" as="geometry">
            <mxPoint x="570" y="218" as="sourcePoint" />
            <mxPoint x="565" y="250" as="targetPoint" />
          </mxGeometry>
        </mxCell>
        <mxCell id="b3EzDC3N50MyFhNFGn3a-69" value="Reddis/in memery DB" style="outlineConnect=0;dashed=0;verticalLabelPosition=bottom;verticalAlign=top;align=center;html=1;shape=mxgraph.aws3.cache_node;fillColor=#2E73B8;gradientColor=none;" vertex="1" parent="1">
          <mxGeometry x="380" y="350" width="60" height="63" as="geometry" />
        </mxCell>
        <mxCell id="b3EzDC3N50MyFhNFGn3a-70" value="" style="endArrow=classic;html=1;rounded=0;entryX=0.897;entryY=1.002;entryDx=0;entryDy=0;entryPerimeter=0;exitX=0.05;exitY=0.05;exitDx=0;exitDy=0;exitPerimeter=0;" edge="1" parent="1" source="b3EzDC3N50MyFhNFGn3a-69" target="b3EzDC3N50MyFhNFGn3a-60">
          <mxGeometry width="50" height="50" relative="1" as="geometry">
            <mxPoint x="360" y="330" as="sourcePoint" />
            <mxPoint x="410" y="280" as="targetPoint" />
          </mxGeometry>
        </mxCell>
        <mxCell id="b3EzDC3N50MyFhNFGn3a-71" value="HPA" style="text;strokeColor=none;fillColor=none;html=1;fontSize=24;fontStyle=1;verticalAlign=middle;align=center;" vertex="1" parent="1">
          <mxGeometry x="405" y="197.13" width="70" height="18" as="geometry" />
        </mxCell>
        <mxCell id="b3EzDC3N50MyFhNFGn3a-72" value="" style="endArrow=classic;html=1;rounded=0;entryX=0.95;entryY=0.05;entryDx=0;entryDy=0;entryPerimeter=0;exitX=0.056;exitY=0.993;exitDx=0;exitDy=0;exitPerimeter=0;" edge="1" parent="1" source="b3EzDC3N50MyFhNFGn3a-53" target="b3EzDC3N50MyFhNFGn3a-69">
          <mxGeometry width="50" height="50" relative="1" as="geometry">
            <mxPoint x="520" y="250" as="sourcePoint" />
            <mxPoint x="570" y="200" as="targetPoint" />
          </mxGeometry>
        </mxCell>
        <mxCell id="b3EzDC3N50MyFhNFGn3a-73" value="" style="endArrow=classic;html=1;rounded=0;" edge="1" parent="1" source="b3EzDC3N50MyFhNFGn3a-53" target="b3EzDC3N50MyFhNFGn3a-55">
          <mxGeometry width="50" height="50" relative="1" as="geometry">
            <mxPoint x="210" y="30" as="sourcePoint" />
            <mxPoint x="260" y="-20" as="targetPoint" />
          </mxGeometry>
        </mxCell>
        <mxCell id="b3EzDC3N50MyFhNFGn3a-74" value="" style="endArrow=classic;html=1;rounded=0;entryX=0.344;entryY=1.01;entryDx=0;entryDy=0;entryPerimeter=0;" edge="1" parent="1" source="b3EzDC3N50MyFhNFGn3a-55" target="b3EzDC3N50MyFhNFGn3a-54">
          <mxGeometry width="50" height="50" relative="1" as="geometry">
            <mxPoint x="570" y="150" as="sourcePoint" />
            <mxPoint x="620" y="100" as="targetPoint" />
          </mxGeometry>
        </mxCell>
      </root>
    </mxGraphModel>
  </diagram>
</mxfile>
